<svg width="718" height="204" viewBox="0 0 718 204" fill="none" xmlns="http://www.w3.org/2000/svg">
<path id="BRILION" d="M11.73 158V45.8H60.18C67.2067 45.8 73.4967 46.4233 79.05 47.67C84.7167 48.8033 89.5333 50.6167 93.5 53.11C97.4667 55.49 100.47 58.6067 102.51 62.46C104.663 66.2 105.74 70.6767 105.74 75.89C105.74 80.31 104.777 84.1633 102.85 87.45C101.037 90.7367 98.1467 93.4 94.18 95.44C90.2133 97.48 84.9433 98.84 78.37 99.52V102.41C89.25 103.09 97.2967 105.697 102.51 110.23C107.723 114.763 110.33 120.883 110.33 128.59C110.33 135.163 108.573 140.603 105.06 144.91C101.547 149.217 96.39 152.503 89.59 154.77C82.79 156.923 74.4033 158 64.43 158H11.73ZM37.91 136.24H63.41C70.3233 136.24 75.4233 135.277 78.71 133.35C81.9967 131.31 83.64 128.137 83.64 123.83C83.64 119.07 81.6567 115.5 77.69 113.12C73.7233 110.74 67.66 109.55 59.5 109.55H37.91V136.24ZM37.91 92.89H55.76C63.8067 92.89 69.7 91.8133 73.44 89.66C77.18 87.3933 79.05 84.05 79.05 79.63C79.05 75.3233 77.2933 72.2067 73.78 70.28C70.38 68.24 65.1667 67.22 58.14 67.22H37.91V92.89ZM135.385 158V45.8H183.155C189.388 45.8 195.055 46.31 200.155 47.33C205.255 48.2367 209.732 49.6533 213.585 51.58C217.552 53.3933 220.895 55.66 223.615 58.38C226.335 60.9867 228.375 64.0467 229.735 67.56C231.095 70.96 231.775 74.7567 231.775 78.95C231.775 82.9167 231.152 86.4867 229.905 89.66C228.658 92.8333 226.732 95.61 224.125 97.99C221.632 100.37 218.458 102.297 214.605 103.77C210.752 105.243 206.275 106.32 201.175 107V109.55C207.635 110.23 212.622 111.703 216.135 113.97C219.762 116.123 222.538 119.013 224.465 122.64C226.392 126.267 228.092 130.63 229.565 135.73L236.025 158H205.595L200.665 137.43C199.645 132.897 198.228 129.383 196.415 126.89C194.715 124.397 192.505 122.697 189.785 121.79C187.065 120.77 183.665 120.26 179.585 120.26H162.755V158H135.385ZM162.755 100.03H181.285C188.198 100.03 193.582 98.67 197.435 95.95C201.288 93.23 203.215 88.98 203.215 83.2C203.215 77.5333 201.458 73.34 197.945 70.62C194.432 67.9 189.105 66.54 181.965 66.54H162.755V100.03ZM258.376 158V45.8H286.256V158H258.376ZM315.791 158V45.8H343.161V158H315.791ZM320.721 158V135.05H388.891V158H320.721ZM408.235 158V45.8H436.115V158H408.235ZM515.12 160.38C506.96 160.38 499.593 159.133 493.02 156.64C486.447 154.147 480.78 150.463 476.02 145.59C471.373 140.717 467.803 134.71 465.31 127.57C462.817 120.317 461.57 111.93 461.57 102.41C461.57 89.0367 463.893 78.0433 468.54 69.43C473.3 60.7033 479.817 54.1867 488.09 49.88C496.363 45.5733 505.713 43.42 516.14 43.42C524.187 43.42 531.497 44.6667 538.07 47.16C544.643 49.6533 550.253 53.3367 554.9 58.21C559.66 63.0833 563.287 69.2033 565.78 76.57C568.387 83.8233 569.69 92.21 569.69 101.73C569.69 111.59 568.33 120.203 565.61 127.57C563.003 134.823 559.263 140.887 554.39 145.76C549.63 150.633 543.907 154.317 537.22 156.81C530.533 159.19 523.167 160.38 515.12 160.38ZM515.97 138.96C521.523 138.96 526.17 137.6 529.91 134.88C533.763 132.047 536.653 128.023 538.58 122.81C540.62 117.483 541.64 111.023 541.64 103.43C541.64 95.3833 540.62 88.5833 538.58 83.03C536.54 77.3633 533.537 73.1133 529.57 70.28C525.717 67.3333 520.957 65.86 515.29 65.86C509.85 65.86 505.203 67.2767 501.35 70.11C497.61 72.83 494.72 76.91 492.68 82.35C490.64 87.6767 489.62 94.25 489.62 102.07C489.62 107.963 490.187 113.233 491.32 117.88C492.567 122.413 494.267 126.267 496.42 129.44C498.573 132.5 501.293 134.88 504.58 136.58C507.98 138.167 511.777 138.96 515.97 138.96ZM594.784 158V45.8H630.314L678.424 121.11H680.464L678.764 45.8H705.454V158H673.324L621.814 78.44H619.944L621.474 158H594.784Z" fill="black"/>
</svg>
