<svg xmlns="http://www.w3.org/2000/svg" viewBox="0 0 200 240" fill="none">
  <!-- Fingerprint "B" logo — blue on transparent -->
  <g stroke="#2563EB" stroke-width="5.5" stroke-linecap="round" fill="none">
    <!-- Top arcs (forehead ridges) -->
    <path d="M58 50 Q100 10 142 50"/>
    <path d="M48 62 Q100 16 152 62"/>
    <path d="M40 76 Q100 24 160 76"/>
    <path d="M35 92 Q100 36 165 92"/>

    <!-- Left side descending curves -->
    <path d="M35 92 Q28 120 32 148 Q36 172 52 192 Q64 208 82 218"/>
    <path d="M40 76 Q30 108 35 140 Q40 168 58 188 Q70 202 88 212"/>
    <path d="M48 62 Q34 96 38 132 Q44 164 64 184 Q78 198 96 206"/>
    <path d="M58 50 Q40 84 44 124 Q50 160 72 178"/>

    <!-- Right side descending curves -->
    <path d="M165 92 Q172 120 168 148 Q164 172 148 192 Q136 208 118 218"/>
    <path d="M160 76 Q170 108 165 140 Q160 168 142 188 Q130 202 112 212"/>
    <path d="M152 62 Q166 96 162 132 Q156 164 136 184 Q122 198 104 206"/>
    <path d="M142 50 Q160 84 156 124 Q150 160 128 178"/>

    <!-- Inner ridges wrapping around B -->
    <path d="M72 178 Q80 148 80 120 Q80 96 88 80"/>
    <path d="M128 178 Q120 148 120 120 Q120 96 112 80"/>

    <!-- Bottom closure -->
    <path d="M82 218 Q100 228 118 218"/>
    <path d="M88 212 Q100 220 112 212"/>
    <path d="M96 206 Q100 210 104 206"/>
  </g>

  <!-- Bold B letterform -->
  <g fill="#2563EB">
    <path d="M80 90 L80 170 L105 170 Q116 170 123 163.5 Q130 157 130 147 Q130 139 125.5 133.5 Q121 128 114 126 L114 125.5 Q120 123.5 124 118.5 Q128 113.5 128 106.5 Q128 97 121.5 93.5 Q115 90 104 90 Z
    M92 100 L104 100 Q110 100 114 103 Q118 106 118 112 Q118 118 114 121 Q110 124 104 124 L92 124 Z
    M92 133 L106 133 Q112.5 133 116.5 136.5 Q120.5 140 120.5 147 Q120.5 153.5 116.5 157 Q112.5 160.5 106 160.5 L92 160.5 Z"/>
  </g>
</svg>
