<svg xmlns="http://www.w3.org/2000/svg" viewBox="0 0 24 24" fill="#5E6AD2"><path d="M3 15.055v-.684c.002-1.204.122-2.082.358-2.637.236-.555.59-.95 1.065-1.186.474-.235 1.163-.395 2.07-.476.905-.082 2.05-.122 3.436-.122h4.142c1.387 0 2.532.04 3.437.122.906.081 1.596.24 2.07.476.474.236.829.63 1.065 1.186.236.555.356 1.433.357 2.637v.684c0 1.204-.121 2.083-.357 2.638-.236.555-.59.95-1.065 1.186-.474.235-1.164.394-2.07.476-.905.081-2.05.122-3.437.122H9.93c-1.386 0-2.531-.04-3.437-.122-.906-.082-1.595-.24-2.07-.476-.474-.236-.828-.631-1.064-1.186C3.122 17.138 3.002 16.26 3 15.055zm1.5-.055c0 1.103.081 1.871.243 2.303.163.432.424.718.784.858.36.14.917.234 1.671.281.754.048 1.744.071 2.97.071h3.664c1.226 0 2.216-.023 2.97-.071.754-.047 1.311-.14 1.671-.281.36-.14.621-.426.784-.858.162-.432.243-1.2.243-2.303s-.081-1.87-.243-2.303c-.163-.432-.424-.718-.784-.858-.36-.14-.917-.234-1.671-.282-.754-.047-1.744-.07-2.97-.07H10.168c-1.226 0-2.216.023-2.97.07-.754.048-1.311.141-1.671.282-.36.14-.621.426-.784.858-.162.432-.243 1.2-.243 2.303zM1 7.5V4.793c0-.478.185-.937.513-1.28A1.74 1.74 0 012.793 3H7.5a.75.75 0 010 1.5H2.793a.243.243 0 00-.179.074.264.264 0 00-.114.22V7.5A.75.75 0 011 7.5zm21.5 0V4.793a.264.264 0 00-.114-.219.243.243 0 00-.179-.074H16.5a.75.75 0 010-1.5h5.707c.478 0 .937.185 1.28.513.342.329.513.788.513 1.28V7.5a.75.75 0 01-1.5 0zM1 16.5v2.707c0 .478.185.937.513 1.28.329.342.803.513 1.28.513H7.5a.75.75 0 000-1.5H2.793a.243.243 0 01-.179-.074.264.264 0 01-.114-.22V16.5A.75.75 0 001 16.5zm21.5 0v2.706a.264.264 0 01-.114.22.243.243 0 01-.179.074H16.5a.75.75 0 000 1.5h5.707a1.74 1.74 0 001.28-.513c.328-.343.513-.802.513-1.28V16.5a.75.75 0 00-1.5 0z"/></svg>
