<svg xmlns="http://www.w3.org/2000/svg" viewBox="0 0 24 24" fill="#95BF47"><path d="M15.337 23.979l7.216-.983.447-7.465-2.96-.345c-.07.837-.24 2.032-.488 3.135-.342 1.524-.756 2.482-1.282 3.107-.47.558-1.091.798-1.933.552zm-1.278-7.28l-.15-1.401c1.396-.834 2.287-2.178 2.287-3.692 0-1.26-.562-2.314-1.513-3.034.295-.298.632-.73.86-1.142 1.397.965 2.308 2.497 2.308 4.176 0 2.071-1.17 3.86-2.87 4.707l-.922.386zM6.192 8.233c0-1.127.648-2.283 1.63-3.084.977-.797 2.205-1.237 3.312-1.237.567 0 1.057.104 1.457.323l-.547.924c-.266-.12-.583-.182-.942-.182-.812 0-1.726.323-2.43.897-.706.577-1.133 1.35-1.133 2.101 0 .413.128.745.394.99l-.946.737c-.5-.458-.795-1.06-.795-1.788zm11.41-6.84L14.59.246c-.384-.158-.93-.252-1.506-.252-.905 0-2.107.274-3.33 1.078C8.537 1.877 7.354 3.17 6.74 4.66l-.916 2.219-2.855.389-.483 1.74 2.335.313-3.073 11.83 2.923.403 3.073-11.83 2.378.317.483-1.74-2.855-.389.6-1.455c.452-1.09 1.252-2.024 2.093-2.652.844-.63 1.588-.826 2.072-.826.21 0 .387.036.537.106l2.386 1.015.483-1.707z"/></svg>
