<svg xmlns="http://www.w3.org/2000/svg" viewBox="0 0 24 24" fill="#635BFF"><path d="M13.976 9.15c-2.172-.806-3.356-1.426-3.356-2.409 0-.831.683-1.305 1.901-1.305 2.227 0 4.515.858 6.09 1.631l.89-5.494C18.252.975 15.697 0 12.165 0 9.667 0 7.589.654 6.104 1.872 4.56 3.147 3.757 4.918 3.757 7.076c0 4.72 4.324 6.443 8.727 8.146 2.445.944 3.275 1.65 3.275 2.609 0 .965-.755 1.54-2.144 1.54-2.49 0-5.544-1.174-7.476-2.535l-.946 5.627C6.777 23.318 9.627 24 12.59 24c2.626 0 4.755-.652 6.29-1.834 1.665-1.28 2.507-3.134 2.507-5.407 0-4.848-4.396-6.573-7.411-7.609z"/></svg>
