<svg xmlns="http://www.w3.org/2000/svg" viewBox="0 0 24 24" fill="#26A5E4"><path d="M11.944 0A12 12 0 000 12a12 12 0 0012 12 12 12 0 0012-12A12 12 0 0012 0h-.056zm5.609 7.304c.128-.002.321.034.464.208a.77.77 0 01.065.527c-.047.312-.198 1.07-.28 1.425l-1.122 4.711c-.085.346-.255.461-.418.473-.356.025-.626-.235-.971-.46l-2.443-1.77-1.178 1.133c-.13.13-.239.239-.49.239l.175-2.488 4.529-4.092c.197-.174-.043-.271-.306-.097l-5.597 3.523-2.411-.753c-.525-.164-.536-.525.109-.777l9.42-3.63c.437-.159.82.107.677.777l-.001.001-.002-.014z"/></svg>
