<svg xmlns="http://www.w3.org/2000/svg" viewBox="0 0 24 24" fill="#26A5E4"><path d="M11.944 0A12 12 0 000 12a11.96 11.96 0 005.547 10.09c.21.097.279-.02.279-.088v-1.594c-2.262.425-2.74-.98-2.74-.98-.37-.94-.903-1.19-.903-1.19-.738-.504.056-.494.056-.494.817.058 1.246.84 1.246.84.726 1.244 1.904.885 2.368.677.074-.526.284-.885.516-1.088-1.805-.205-3.703-.903-3.703-4.016 0-.887.316-1.613.834-2.182-.083-.205-.362-1.032.08-2.15 0 0 .68-.218 2.228.834a7.758 7.758 0 014.07 0c1.546-1.052 2.225-.834 2.225-.834.443 1.118.164 1.945.08 2.15.52.569.834 1.295.834 2.182 0 3.122-1.902 3.808-3.713 4.008.292.251.55.747.55 1.505v2.232c0 .07.068.19.282.087A12.002 12.002 0 0024 12 12 12 0 0011.944 0z"/></svg>
