<svg xmlns="http://www.w3.org/2000/svg" viewBox="0 0 240 240">
  <defs>
    <linearGradient id="tg" x1="0.6" y1="0.2" x2="0.35" y2="0.9">
      <stop offset="0" stop-color="#37AEE2"/>
      <stop offset="1" stop-color="#1E96C8"/>
    </linearGradient>
  </defs>
  <circle cx="120" cy="120" r="120" fill="url(#tg)"/>
  <path d="M98 175c-3.8 0-3.1-1.4-4.4-5.1L82 132.6 170.4 78" fill="#C8DAEA"/>
  <path d="M98 175c3 0 4.3-1.3 6-3l16-15.5-20-12" fill="#A9C9DD"/>
  <path d="M100 144.5l48.3 35.7c5.5 3 9.5 1.5 10.9-5.1L178 82.7c2-8-3.1-11.6-8.4-9.2L55.6 112.4c-7.8 3.1-7.7 7.5-1.4 9.5l30.8 9.6L160 95.4c3-1.8 5.7-.8 3.5 1.2" fill="white"/>
</svg>
