<svg xmlns="http://www.w3.org/2000/svg" viewBox="0 0 24 24" fill="#131722"><path d="M12 0C5.372 0 0 5.372 0 12s5.372 12 12 12 12-5.372 12-12S18.628 0 12 0zm5.696 5.048h1.15c.116 0 .21.044.284.132a.39.39 0 01.088.284l-.932 7.392a.476.476 0 01-.164.3.45.45 0 01-.308.116h-1.052a.197.197 0 01-.164-.076.197.197 0 01-.044-.176l.128-.672a2.727 2.727 0 01-.892.712 2.39 2.39 0 01-1.104.268c-.57 0-1.024-.192-1.364-.576-.34-.384-.508-.9-.508-1.548 0-.832.24-1.556.72-2.172.48-.616 1.064-.924 1.752-.924.37 0 .676.08.92.24.244.16.42.388.528.684l.228-1.8h-3.892l.168-1.312h3.892l.34-2.68h1.15zM6.592 8.456h1.08c.176 0 .3.104.372.312l1.14 4.02 2.328-4.14a.52.52 0 01.468-.288h1.08c.128 0 .22.048.276.144a.34.34 0 01.012.312l-3.84 6.696a.492.492 0 01-.456.288H7.98a.286.286 0 01-.264-.144.317.317 0 01-.024-.312l1.092-1.872-1.932-4.728a.327.327 0 01.012-.312c.06-.096.148-.144.264-.144h.464z"/></svg>
